<svg width="528" height="525" viewBox="0 0 528 525" fill="none" xmlns="http://www.w3.org/2000/svg">
<g filter="url(#filter0_d_1_3)">
<rect x="50" y="30.5" width="428" height="424" rx="5" fill="white" shape-rendering="crispEdges"/>
<path d="M271.5 376.214C267.214 379.5 281.643 391.643 246.214 378.857C210.857 366.071 196.429 321.5 189.214 296.929C182 272.357 201.357 238.929 214.143 229.429C226.929 219.929 250.5 216 253.143 215.643C255.714 215.357 259.357 213.714 265.571 207.5C271.786 201.286 291.429 194.714 305.571 197.643C319.643 200.571 354.714 234 377.929 281.214C401.214 328.357 369.786 362.143 364.214 362.143C358.643 362.143 326.5 340.5 323.571 337.857C320.643 335.286 313.429 334.571 308.143 332.643C302.929 330.643 290.786 316.286 290.786 316.286C292.786 352.286 275.714 372.929 271.5 376.214Z" fill="#EAB363"/>
<path d="M257.714 380.786C250.143 380.786 230.5 367.071 209.571 338.214C188.571 309.357 194.5 269.071 194.5 269.071C190.571 330.357 262 377.857 262 377.857C262 377.857 265.214 380.786 257.714 380.786Z" fill="#8C5E28"/>
<path d="M308.143 332.643C302.929 330.643 290.786 316.286 290.786 316.286C290.786 316.286 285.214 257.286 290.786 231.429C296.357 205.5 299.286 205.214 303.214 213.714C306.786 221.357 307.929 304.143 320.286 336.071C316.786 334.786 311.929 334.071 308.143 332.643Z" fill="#E2942D"/>
<path d="M252.143 217.643C252.143 217.643 241 226.786 238.714 227.5C236.429 228.143 210.5 241.571 203.357 255.643C196.143 269.714 200.714 248.143 208.214 240.571C215.786 233.071 234.429 219.571 252.143 217.643Z" fill="#8C5E28"/>
<path d="M245.071 364.571C200.929 388.5 148.643 388.714 148.643 388.714C154.5 373.929 137.571 348.857 137.571 348.857C186.214 354 218.214 336.071 218.214 336.071C219.357 337.571 245.071 364.571 245.071 364.571Z" fill="#E6E6E6"/>
<path opacity="0.1" d="M245.071 364.571C231.571 371.857 217.357 376.929 204.071 380.5C199.214 363.143 187.929 353.286 178.857 348C203.5 344.286 218.214 336.071 218.214 336.071C219.357 337.571 245.071 364.571 245.071 364.571Z" fill="black"/>
<path d="M271.214 223.643C264.286 236.857 245.857 228.857 250 228.643C254.143 228.429 266.571 211.357 274.857 205.643C283.214 199.929 305.571 197.643 308.071 201.214C310.643 204.786 303.5 205.357 295.214 205.643C286.857 205.857 281.357 247.786 281.357 247.786C266.143 239.929 278.143 210.429 271.214 223.643Z" fill="#F4CD9A"/>
<path d="M168.725 165.5L172.595 155H173.93L177.785 165.5H176.45L175.49 162.8H171.02L170.045 165.5H168.725ZM171.395 161.78H175.115L173.255 156.59L171.395 161.78ZM183.246 165.68C182.636 165.68 182.091 165.555 181.611 165.305C181.141 165.055 180.781 164.705 180.531 164.255L180.411 165.5H179.271V154.7H180.531V159.29C180.771 158.93 181.111 158.605 181.551 158.315C182.001 158.025 182.571 157.88 183.261 157.88C184.001 157.88 184.646 158.05 185.196 158.39C185.746 158.73 186.171 159.195 186.471 159.785C186.781 160.375 186.936 161.045 186.936 161.795C186.936 162.545 186.781 163.215 186.471 163.805C186.171 164.385 185.741 164.845 185.181 165.185C184.631 165.515 183.986 165.68 183.246 165.68ZM183.111 164.585C183.611 164.585 184.051 164.47 184.431 164.24C184.811 164 185.111 163.67 185.331 163.25C185.551 162.83 185.661 162.34 185.661 161.78C185.661 161.22 185.551 160.73 185.331 160.31C185.111 159.89 184.811 159.565 184.431 159.335C184.051 159.095 183.611 158.975 183.111 158.975C182.611 158.975 182.171 159.095 181.791 159.335C181.411 159.565 181.111 159.89 180.891 160.31C180.671 160.73 180.561 161.22 180.561 161.78C180.561 162.34 180.671 162.83 180.891 163.25C181.111 163.67 181.411 164 181.791 164.24C182.171 164.47 182.611 164.585 183.111 164.585ZM188.69 165.5V158.06H189.83L189.935 159.485C190.165 158.995 190.515 158.605 190.985 158.315C191.455 158.025 192.035 157.88 192.725 157.88V159.2H192.38C191.94 159.2 191.535 159.28 191.165 159.44C190.795 159.59 190.5 159.85 190.28 160.22C190.06 160.59 189.95 161.1 189.95 161.75V165.5H188.69ZM196.614 165.68C195.994 165.68 195.479 165.575 195.069 165.365C194.659 165.155 194.354 164.875 194.154 164.525C193.954 164.175 193.854 163.795 193.854 163.385C193.854 162.625 194.144 162.04 194.724 161.63C195.304 161.22 196.094 161.015 197.094 161.015H199.104V160.925C199.104 160.275 198.934 159.785 198.594 159.455C198.254 159.115 197.799 158.945 197.229 158.945C196.739 158.945 196.314 159.07 195.954 159.32C195.604 159.56 195.384 159.915 195.294 160.385H194.004C194.054 159.845 194.234 159.39 194.544 159.02C194.864 158.65 195.259 158.37 195.729 158.18C196.199 157.98 196.699 157.88 197.229 157.88C198.269 157.88 199.049 158.16 199.569 158.72C200.099 159.27 200.364 160.005 200.364 160.925V165.5H199.239L199.164 164.165C198.954 164.585 198.644 164.945 198.234 165.245C197.834 165.535 197.294 165.68 196.614 165.68ZM196.809 164.615C197.289 164.615 197.699 164.49 198.039 164.24C198.389 163.99 198.654 163.665 198.834 163.265C199.014 162.865 199.104 162.445 199.104 162.005V161.99H197.199C196.459 161.99 195.934 162.12 195.624 162.38C195.324 162.63 195.174 162.945 195.174 163.325C195.174 163.715 195.314 164.03 195.594 164.27C195.884 164.5 196.289 164.615 196.809 164.615ZM209.614 165.68C208.914 165.68 208.284 165.52 207.724 165.2C207.164 164.88 206.719 164.43 206.389 163.85C206.069 163.26 205.909 162.57 205.909 161.78C205.909 160.99 206.074 160.305 206.404 159.725C206.734 159.135 207.179 158.68 207.739 158.36C208.309 158.04 208.944 157.88 209.644 157.88C210.344 157.88 210.974 158.04 211.534 158.36C212.094 158.68 212.534 159.135 212.854 159.725C213.184 160.305 213.349 160.99 213.349 161.78C213.349 162.57 213.184 163.26 212.854 163.85C212.524 164.43 212.074 164.88 211.504 165.2C210.944 165.52 210.314 165.68 209.614 165.68ZM209.614 164.6C210.044 164.6 210.444 164.495 210.814 164.285C211.184 164.075 211.484 163.76 211.714 163.34C211.944 162.92 212.059 162.4 212.059 161.78C212.059 161.16 211.944 160.64 211.714 160.22C211.494 159.8 211.199 159.485 210.829 159.275C210.459 159.065 210.064 158.96 209.644 158.96C209.214 158.96 208.814 159.065 208.444 159.275C208.074 159.485 207.774 159.8 207.544 160.22C207.314 160.64 207.199 161.16 207.199 161.78C207.199 162.4 207.314 162.92 207.544 163.34C207.774 163.76 208.069 164.075 208.429 164.285C208.799 164.495 209.194 164.6 209.614 164.6ZM223.046 165.68C222.436 165.68 221.891 165.555 221.411 165.305C220.941 165.055 220.581 164.705 220.331 164.255L220.211 165.5H219.071V154.7H220.331V159.29C220.571 158.93 220.911 158.605 221.351 158.315C221.801 158.025 222.371 157.88 223.061 157.88C223.801 157.88 224.446 158.05 224.996 158.39C225.546 158.73 225.971 159.195 226.271 159.785C226.581 160.375 226.736 161.045 226.736 161.795C226.736 162.545 226.581 163.215 226.271 163.805C225.971 164.385 225.541 164.845 224.981 165.185C224.431 165.515 223.786 165.68 223.046 165.68ZM222.911 164.585C223.411 164.585 223.851 164.47 224.231 164.24C224.611 164 224.911 163.67 225.131 163.25C225.351 162.83 225.461 162.34 225.461 161.78C225.461 161.22 225.351 160.73 225.131 160.31C224.911 159.89 224.611 159.565 224.231 159.335C223.851 159.095 223.411 158.975 222.911 158.975C222.411 158.975 221.971 159.095 221.591 159.335C221.211 159.565 220.911 159.89 220.691 160.31C220.471 160.73 220.361 161.22 220.361 161.78C220.361 162.34 220.471 162.83 220.691 163.25C220.911 163.67 221.211 164 221.591 164.24C221.971 164.47 222.411 164.585 222.911 164.585ZM229.255 156.41C229.005 156.41 228.795 156.33 228.625 156.17C228.465 156 228.385 155.79 228.385 155.54C228.385 155.3 228.465 155.1 228.625 154.94C228.795 154.78 229.005 154.7 229.255 154.7C229.495 154.7 229.7 154.78 229.87 154.94C230.04 155.1 230.125 155.3 230.125 155.54C230.125 155.79 230.04 156 229.87 156.17C229.7 156.33 229.495 156.41 229.255 156.41ZM228.625 165.5V158.06H229.885V165.5H228.625ZM234.929 165.68C234.039 165.68 233.299 165.455 232.709 165.005C232.119 164.555 231.774 163.945 231.674 163.175H232.964C233.044 163.565 233.249 163.905 233.579 164.195C233.919 164.475 234.374 164.615 234.944 164.615C235.474 164.615 235.864 164.505 236.114 164.285C236.364 164.055 236.489 163.785 236.489 163.475C236.489 163.025 236.324 162.725 235.994 162.575C235.674 162.425 235.219 162.29 234.629 162.17C234.229 162.09 233.829 161.975 233.429 161.825C233.029 161.675 232.694 161.465 232.424 161.195C232.154 160.915 232.019 160.55 232.019 160.1C232.019 159.45 232.259 158.92 232.739 158.51C233.229 158.09 233.889 157.88 234.719 157.88C235.509 157.88 236.154 158.08 236.654 158.48C237.164 158.87 237.459 159.43 237.539 160.16H236.294C236.244 159.78 236.079 159.485 235.799 159.275C235.529 159.055 235.164 158.945 234.704 158.945C234.254 158.945 233.904 159.04 233.654 159.23C233.414 159.42 233.294 159.67 233.294 159.98C233.294 160.28 233.449 160.515 233.759 160.685C234.079 160.855 234.509 161 235.049 161.12C235.509 161.22 235.944 161.345 236.354 161.495C236.774 161.635 237.114 161.85 237.374 162.14C237.644 162.42 237.779 162.83 237.779 163.37C237.789 164.04 237.534 164.595 237.014 165.035C236.504 165.465 235.809 165.68 234.929 165.68ZM242.999 165.68C242.289 165.68 241.649 165.52 241.079 165.2C240.519 164.87 240.074 164.415 239.744 163.835C239.424 163.245 239.264 162.56 239.264 161.78C239.264 161 239.424 160.32 239.744 159.74C240.074 159.15 240.519 158.695 241.079 158.375C241.649 158.045 242.289 157.88 242.999 157.88C243.879 157.88 244.619 158.11 245.219 158.57C245.829 159.03 246.214 159.645 246.374 160.415H245.084C244.984 159.955 244.739 159.6 244.349 159.35C243.959 159.09 243.504 158.96 242.984 158.96C242.564 158.96 242.169 159.065 241.799 159.275C241.429 159.485 241.129 159.8 240.899 160.22C240.669 160.64 240.554 161.16 240.554 161.78C240.554 162.4 240.669 162.92 240.899 163.34C241.129 163.76 241.429 164.08 241.799 164.3C242.169 164.51 242.564 164.615 242.984 164.615C243.504 164.615 243.959 164.49 244.349 164.24C244.739 163.98 244.984 163.615 245.084 163.145H246.374C246.224 163.895 245.844 164.505 245.234 164.975C244.624 165.445 243.879 165.68 242.999 165.68ZM251.524 165.68C250.824 165.68 250.194 165.52 249.634 165.2C249.074 164.88 248.629 164.43 248.299 163.85C247.979 163.26 247.819 162.57 247.819 161.78C247.819 160.99 247.984 160.305 248.314 159.725C248.644 159.135 249.089 158.68 249.649 158.36C250.219 158.04 250.854 157.88 251.554 157.88C252.254 157.88 252.884 158.04 253.444 158.36C254.004 158.68 254.444 159.135 254.764 159.725C255.094 160.305 255.259 160.99 255.259 161.78C255.259 162.57 255.094 163.26 254.764 163.85C254.434 164.43 253.984 164.88 253.414 165.2C252.854 165.52 252.224 165.68 251.524 165.68ZM251.524 164.6C251.954 164.6 252.354 164.495 252.724 164.285C253.094 164.075 253.394 163.76 253.624 163.34C253.854 162.92 253.969 162.4 253.969 161.78C253.969 161.16 253.854 160.64 253.624 160.22C253.404 159.8 253.109 159.485 252.739 159.275C252.369 159.065 251.974 158.96 251.554 158.96C251.124 158.96 250.724 159.065 250.354 159.275C249.984 159.485 249.684 159.8 249.454 160.22C249.224 160.64 249.109 161.16 249.109 161.78C249.109 162.4 249.224 162.92 249.454 163.34C249.684 163.76 249.979 164.075 250.339 164.285C250.709 164.495 251.104 164.6 251.524 164.6ZM257.776 156.41C257.526 156.41 257.316 156.33 257.146 156.17C256.986 156 256.906 155.79 256.906 155.54C256.906 155.3 256.986 155.1 257.146 154.94C257.316 154.78 257.526 154.7 257.776 154.7C258.016 154.7 258.221 154.78 258.391 154.94C258.561 155.1 258.646 155.3 258.646 155.54C258.646 155.79 258.561 156 258.391 156.17C258.221 156.33 258.016 156.41 257.776 156.41ZM257.146 165.5V158.06H258.406V165.5H257.146ZM263.539 165.5C262.859 165.5 262.324 165.335 261.934 165.005C261.544 164.675 261.349 164.08 261.349 163.22V159.125H260.059V158.06H261.349L261.514 156.275H262.609V158.06H264.799V159.125H262.609V163.22C262.609 163.69 262.704 164.01 262.894 164.18C263.084 164.34 263.419 164.42 263.899 164.42H264.679V165.5H263.539ZM269.585 165.68C268.885 165.68 268.255 165.52 267.695 165.2C267.135 164.88 266.69 164.43 266.36 163.85C266.04 163.26 265.88 162.57 265.88 161.78C265.88 160.99 266.045 160.305 266.375 159.725C266.705 159.135 267.15 158.68 267.71 158.36C268.28 158.04 268.915 157.88 269.615 157.88C270.315 157.88 270.945 158.04 271.505 158.36C272.065 158.68 272.505 159.135 272.825 159.725C273.155 160.305 273.32 160.99 273.32 161.78C273.32 162.57 273.155 163.26 272.825 163.85C272.495 164.43 272.045 164.88 271.475 165.2C270.915 165.52 270.285 165.68 269.585 165.68ZM269.585 164.6C270.015 164.6 270.415 164.495 270.785 164.285C271.155 164.075 271.455 163.76 271.685 163.34C271.915 162.92 272.03 162.4 272.03 161.78C272.03 161.16 271.915 160.64 271.685 160.22C271.465 159.8 271.17 159.485 270.8 159.275C270.43 159.065 270.035 158.96 269.615 158.96C269.185 158.96 268.785 159.065 268.415 159.275C268.045 159.485 267.745 159.8 267.515 160.22C267.285 160.64 267.17 161.16 267.17 161.78C267.17 162.4 267.285 162.92 267.515 163.34C267.745 163.76 268.04 164.075 268.4 164.285C268.77 164.495 269.165 164.6 269.585 164.6ZM282.387 165.68C281.677 165.68 281.047 165.52 280.497 165.2C279.947 164.87 279.512 164.415 279.192 163.835C278.882 163.255 278.727 162.57 278.727 161.78C278.727 161 278.882 160.32 279.192 159.74C279.502 159.15 279.932 158.695 280.482 158.375C281.042 158.045 281.687 157.88 282.417 157.88C283.137 157.88 283.757 158.045 284.277 158.375C284.807 158.695 285.212 159.12 285.492 159.65C285.772 160.18 285.912 160.75 285.912 161.36C285.912 161.47 285.907 161.58 285.897 161.69C285.897 161.8 285.897 161.925 285.897 162.065H279.972C280.002 162.635 280.132 163.11 280.362 163.49C280.602 163.86 280.897 164.14 281.247 164.33C281.607 164.52 281.987 164.615 282.387 164.615C282.907 164.615 283.342 164.495 283.692 164.255C284.042 164.015 284.297 163.69 284.457 163.28H285.702C285.502 163.97 285.117 164.545 284.547 165.005C283.987 165.455 283.267 165.68 282.387 165.68ZM282.387 158.945C281.787 158.945 281.252 159.13 280.782 159.5C280.322 159.86 280.057 160.39 279.987 161.09H284.667C284.637 160.42 284.407 159.895 283.977 159.515C283.547 159.135 283.017 158.945 282.387 158.945ZM294.927 165.68C294.187 165.68 293.537 165.51 292.977 165.17C292.427 164.83 291.997 164.365 291.687 163.775C291.387 163.185 291.237 162.515 291.237 161.765C291.237 161.015 291.392 160.35 291.702 159.77C292.012 159.18 292.442 158.72 292.992 158.39C293.542 158.05 294.192 157.88 294.942 157.88C295.552 157.88 296.092 158.005 296.562 158.255C297.032 158.505 297.397 158.855 297.657 159.305V154.7H298.917V165.5H297.777L297.657 164.27C297.417 164.63 297.072 164.955 296.622 165.245C296.172 165.535 295.607 165.68 294.927 165.68ZM295.062 164.585C295.562 164.585 296.002 164.47 296.382 164.24C296.772 164 297.072 163.67 297.282 163.25C297.502 162.83 297.612 162.34 297.612 161.78C297.612 161.22 297.502 160.73 297.282 160.31C297.072 159.89 296.772 159.565 296.382 159.335C296.002 159.095 295.562 158.975 295.062 158.975C294.572 158.975 294.132 159.095 293.742 159.335C293.362 159.565 293.062 159.89 292.842 160.31C292.632 160.73 292.527 161.22 292.527 161.78C292.527 162.34 292.632 162.83 292.842 163.25C293.062 163.67 293.362 164 293.742 164.24C294.132 164.47 294.572 164.585 295.062 164.585ZM304.316 165.68C303.606 165.68 302.976 165.52 302.426 165.2C301.876 164.87 301.441 164.415 301.121 163.835C300.811 163.255 300.656 162.57 300.656 161.78C300.656 161 300.811 160.32 301.121 159.74C301.431 159.15 301.861 158.695 302.411 158.375C302.971 158.045 303.616 157.88 304.346 157.88C305.066 157.88 305.686 158.045 306.206 158.375C306.736 158.695 307.141 159.12 307.421 159.65C307.701 160.18 307.841 160.75 307.841 161.36C307.841 161.47 307.836 161.58 307.826 161.69C307.826 161.8 307.826 161.925 307.826 162.065H301.901C301.931 162.635 302.061 163.11 302.291 163.49C302.531 163.86 302.826 164.14 303.176 164.33C303.536 164.52 303.916 164.615 304.316 164.615C304.836 164.615 305.271 164.495 305.621 164.255C305.971 164.015 306.226 163.69 306.386 163.28H307.631C307.431 163.97 307.046 164.545 306.476 165.005C305.916 165.455 305.196 165.68 304.316 165.68ZM304.316 158.945C303.716 158.945 303.181 159.13 302.711 159.5C302.251 159.86 301.986 160.39 301.916 161.09H306.596C306.566 160.42 306.336 159.895 305.906 159.515C305.476 159.135 304.946 158.945 304.316 158.945ZM312.361 165.68C311.471 165.68 310.731 165.455 310.141 165.005C309.551 164.555 309.206 163.945 309.106 163.175H310.396C310.476 163.565 310.681 163.905 311.011 164.195C311.351 164.475 311.806 164.615 312.376 164.615C312.906 164.615 313.296 164.505 313.546 164.285C313.796 164.055 313.921 163.785 313.921 163.475C313.921 163.025 313.756 162.725 313.426 162.575C313.106 162.425 312.651 162.29 312.061 162.17C311.661 162.09 311.261 161.975 310.861 161.825C310.461 161.675 310.126 161.465 309.856 161.195C309.586 160.915 309.451 160.55 309.451 160.1C309.451 159.45 309.691 158.92 310.171 158.51C310.661 158.09 311.321 157.88 312.151 157.88C312.941 157.88 313.586 158.08 314.086 158.48C314.596 158.87 314.891 159.43 314.971 160.16H313.726C313.676 159.78 313.511 159.485 313.231 159.275C312.961 159.055 312.596 158.945 312.136 158.945C311.686 158.945 311.336 159.04 311.086 159.23C310.846 159.42 310.726 159.67 310.726 159.98C310.726 160.28 310.881 160.515 311.191 160.685C311.511 160.855 311.941 161 312.481 161.12C312.941 161.22 313.376 161.345 313.786 161.495C314.206 161.635 314.546 161.85 314.806 162.14C315.076 162.42 315.211 162.83 315.211 163.37C315.221 164.04 314.966 164.595 314.446 165.035C313.936 165.465 313.241 165.68 312.361 165.68ZM320.431 165.68C319.721 165.68 319.081 165.52 318.511 165.2C317.951 164.87 317.506 164.415 317.176 163.835C316.856 163.245 316.696 162.56 316.696 161.78C316.696 161 316.856 160.32 317.176 159.74C317.506 159.15 317.951 158.695 318.511 158.375C319.081 158.045 319.721 157.88 320.431 157.88C321.311 157.88 322.051 158.11 322.651 158.57C323.261 159.03 323.646 159.645 323.806 160.415H322.516C322.416 159.955 322.171 159.6 321.781 159.35C321.391 159.09 320.936 158.96 320.416 158.96C319.996 158.96 319.601 159.065 319.231 159.275C318.861 159.485 318.561 159.8 318.331 160.22C318.101 160.64 317.986 161.16 317.986 161.78C317.986 162.4 318.101 162.92 318.331 163.34C318.561 163.76 318.861 164.08 319.231 164.3C319.601 164.51 319.996 164.615 320.416 164.615C320.936 164.615 321.391 164.49 321.781 164.24C322.171 163.98 322.416 163.615 322.516 163.145H323.806C323.656 163.895 323.276 164.505 322.666 164.975C322.056 165.445 321.311 165.68 320.431 165.68ZM328.28 165.68C327.4 165.68 326.7 165.415 326.18 164.885C325.66 164.345 325.4 163.52 325.4 162.41V158.06H326.66V162.275C326.66 163.825 327.295 164.6 328.565 164.6C329.215 164.6 329.75 164.37 330.17 163.91C330.6 163.44 330.815 162.775 330.815 161.915V158.06H332.075V165.5H330.935L330.845 164.165C330.615 164.635 330.27 165.005 329.81 165.275C329.36 165.545 328.85 165.68 328.28 165.68ZM338.124 165.68C337.514 165.68 336.969 165.555 336.489 165.305C336.019 165.055 335.659 164.705 335.409 164.255L335.289 165.5H334.149V154.7H335.409V159.29C335.649 158.93 335.989 158.605 336.429 158.315C336.879 158.025 337.449 157.88 338.139 157.88C338.879 157.88 339.524 158.05 340.074 158.39C340.624 158.73 341.049 159.195 341.349 159.785C341.659 160.375 341.814 161.045 341.814 161.795C341.814 162.545 341.659 163.215 341.349 163.805C341.049 164.385 340.619 164.845 340.059 165.185C339.509 165.515 338.864 165.68 338.124 165.68ZM337.989 164.585C338.489 164.585 338.929 164.47 339.309 164.24C339.689 164 339.989 163.67 340.209 163.25C340.429 162.83 340.539 162.34 340.539 161.78C340.539 161.22 340.429 160.73 340.209 160.31C339.989 159.89 339.689 159.565 339.309 159.335C338.929 159.095 338.489 158.975 337.989 158.975C337.489 158.975 337.049 159.095 336.669 159.335C336.289 159.565 335.989 159.89 335.769 160.31C335.549 160.73 335.439 161.22 335.439 161.78C335.439 162.34 335.549 162.83 335.769 163.25C335.989 163.67 336.289 164 336.669 164.24C337.049 164.47 337.489 164.585 337.989 164.585ZM343.568 165.5V158.06H344.708L344.813 159.485C345.043 158.995 345.393 158.605 345.863 158.315C346.333 158.025 346.913 157.88 347.603 157.88V159.2H347.258C346.818 159.2 346.413 159.28 346.043 159.44C345.673 159.59 345.378 159.85 345.158 160.22C344.938 160.59 344.828 161.1 344.828 161.75V165.5H343.568ZM351.492 165.68C350.872 165.68 350.357 165.575 349.947 165.365C349.537 165.155 349.232 164.875 349.032 164.525C348.832 164.175 348.732 163.795 348.732 163.385C348.732 162.625 349.022 162.04 349.602 161.63C350.182 161.22 350.972 161.015 351.972 161.015H353.982V160.925C353.982 160.275 353.812 159.785 353.472 159.455C353.132 159.115 352.677 158.945 352.107 158.945C351.617 158.945 351.192 159.07 350.832 159.32C350.482 159.56 350.262 159.915 350.172 160.385H348.882C348.932 159.845 349.112 159.39 349.422 159.02C349.742 158.65 350.137 158.37 350.607 158.18C351.077 157.98 351.577 157.88 352.107 157.88C353.147 157.88 353.927 158.16 354.447 158.72C354.977 159.27 355.242 160.005 355.242 160.925V165.5H354.117L354.042 164.165C353.832 164.585 353.522 164.945 353.112 165.245C352.712 165.535 352.172 165.68 351.492 165.68ZM351.687 164.615C352.167 164.615 352.577 164.49 352.917 164.24C353.267 163.99 353.532 163.665 353.712 163.265C353.892 162.865 353.982 162.445 353.982 162.005V161.99H352.077C351.337 161.99 350.812 162.12 350.502 162.38C350.202 162.63 350.052 162.945 350.052 163.325C350.052 163.715 350.192 164.03 350.472 164.27C350.762 164.5 351.167 164.615 351.687 164.615ZM357.403 162.59L357.253 155H358.618L358.468 162.59H357.403ZM357.973 165.575C357.723 165.575 357.513 165.495 357.343 165.335C357.183 165.165 357.103 164.96 357.103 164.72C357.103 164.48 357.183 164.28 357.343 164.12C357.513 163.95 357.723 163.865 357.973 163.865C358.213 163.865 358.413 163.95 358.573 164.12C358.743 164.28 358.828 164.48 358.828 164.72C358.828 164.96 358.743 165.165 358.573 165.335C358.413 165.495 358.213 165.575 357.973 165.575Z" fill="#34355B"/>
<path d="M162.091 101.788C160.779 101.788 159.555 101.572 158.419 101.14C157.299 100.708 156.323 100.1 155.491 99.316C154.675 98.532 154.035 97.612 153.571 96.556C153.123 95.5 152.899 94.348 152.899 93.1C152.899 91.852 153.123 90.7 153.571 89.644C154.035 88.588 154.683 87.668 155.515 86.884C156.347 86.1 157.323 85.492 158.443 85.06C159.563 84.628 160.779 84.412 162.091 84.412C163.419 84.412 164.635 84.628 165.739 85.06C166.859 85.492 167.827 86.1 168.643 86.884C169.475 87.652 170.123 88.564 170.587 89.62C171.051 90.676 171.283 91.836 171.283 93.1C171.283 94.348 171.051 95.508 170.587 96.58C170.123 97.636 169.475 98.556 168.643 99.34C167.827 100.108 166.859 100.708 165.739 101.14C164.635 101.572 163.419 101.788 162.091 101.788ZM167.587 105.364C166.931 105.364 166.307 105.292 165.715 105.148C165.139 105.004 164.563 104.772 163.987 104.452C163.427 104.132 162.835 103.7 162.211 103.156C161.603 102.612 160.939 101.94 160.219 101.14L164.299 100.108C164.731 100.7 165.131 101.172 165.499 101.524C165.867 101.876 166.219 102.124 166.555 102.268C166.907 102.412 167.275 102.484 167.659 102.484C168.683 102.484 169.595 102.068 170.395 101.236L172.123 103.3C170.987 104.676 169.475 105.364 167.587 105.364ZM162.091 98.476C162.843 98.476 163.531 98.348 164.155 98.092C164.795 97.836 165.355 97.468 165.835 96.988C166.315 96.508 166.683 95.94 166.939 95.284C167.211 94.612 167.347 93.884 167.347 93.1C167.347 92.3 167.211 91.572 166.939 90.916C166.683 90.26 166.315 89.692 165.835 89.212C165.355 88.732 164.795 88.364 164.155 88.108C163.531 87.852 162.843 87.724 162.091 87.724C161.339 87.724 160.643 87.852 160.003 88.108C159.363 88.364 158.803 88.732 158.323 89.212C157.859 89.692 157.491 90.26 157.219 90.916C156.963 91.572 156.835 92.3 156.835 93.1C156.835 93.884 156.963 94.612 157.219 95.284C157.491 95.94 157.859 96.508 158.323 96.988C158.803 97.468 159.363 97.836 160.003 98.092C160.643 98.348 161.339 98.476 162.091 98.476ZM179.389 101.692C178.317 101.692 177.357 101.484 176.509 101.068C175.677 100.652 175.029 100.02 174.565 99.172C174.101 98.308 173.869 97.212 173.869 95.884V88.588H177.613V95.332C177.613 96.404 177.837 97.196 178.285 97.708C178.749 98.204 179.397 98.452 180.229 98.452C180.805 98.452 181.317 98.332 181.765 98.092C182.213 97.836 182.565 97.452 182.821 96.94C183.077 96.412 183.205 95.756 183.205 94.972V88.588H186.949V101.5H183.397V97.948L184.045 98.98C183.613 99.876 182.973 100.556 182.125 101.02C181.293 101.468 180.381 101.692 179.389 101.692ZM198.338 101.5V98.98L198.098 98.428V93.916C198.098 93.116 197.85 92.492 197.354 92.044C196.874 91.596 196.13 91.372 195.122 91.372C194.434 91.372 193.754 91.484 193.082 91.708C192.426 91.916 191.866 92.204 191.402 92.572L190.058 89.956C190.762 89.46 191.61 89.076 192.602 88.804C193.594 88.532 194.602 88.396 195.626 88.396C197.594 88.396 199.122 88.86 200.21 89.788C201.298 90.716 201.842 92.164 201.842 94.132V101.5H198.338ZM194.402 101.692C193.394 101.692 192.53 101.524 191.81 101.188C191.09 100.836 190.538 100.364 190.154 99.772C189.77 99.18 189.578 98.516 189.578 97.78C189.578 97.012 189.762 96.34 190.13 95.764C190.514 95.188 191.114 94.74 191.93 94.42C192.746 94.084 193.81 93.916 195.122 93.916H198.554V96.1H195.53C194.65 96.1 194.042 96.244 193.706 96.532C193.386 96.82 193.226 97.18 193.226 97.612C193.226 98.092 193.41 98.476 193.778 98.764C194.162 99.036 194.682 99.172 195.338 99.172C195.962 99.172 196.522 99.028 197.018 98.74C197.514 98.436 197.874 97.996 198.098 97.42L198.674 99.148C198.402 99.98 197.906 100.612 197.186 101.044C196.466 101.476 195.538 101.692 194.402 101.692ZM205.23 101.5V83.692H208.974V101.5H205.23ZM225.654 101.692C224.182 101.692 222.886 101.404 221.766 100.828C220.662 100.252 219.806 99.468 219.198 98.476C218.59 97.468 218.286 96.324 218.286 95.044C218.286 93.748 218.582 92.604 219.174 91.612C219.782 90.604 220.606 89.82 221.646 89.26C222.686 88.684 223.862 88.396 225.174 88.396C226.438 88.396 227.574 88.668 228.582 89.212C229.606 89.74 230.414 90.508 231.006 91.516C231.598 92.508 231.894 93.7 231.894 95.092C231.894 95.236 231.886 95.404 231.87 95.596C231.854 95.772 231.838 95.94 231.822 96.1H221.334V93.916H229.854L228.414 94.564C228.414 93.892 228.278 93.308 228.006 92.812C227.734 92.316 227.358 91.932 226.878 91.66C226.398 91.372 225.838 91.228 225.198 91.228C224.558 91.228 223.99 91.372 223.494 91.66C223.014 91.932 222.638 92.324 222.366 92.836C222.094 93.332 221.958 93.924 221.958 94.612V95.188C221.958 95.892 222.11 96.516 222.414 97.06C222.734 97.588 223.174 97.996 223.734 98.284C224.31 98.556 224.982 98.692 225.75 98.692C226.438 98.692 227.038 98.588 227.55 98.38C228.078 98.172 228.558 97.86 228.99 97.444L230.982 99.604C230.39 100.276 229.646 100.796 228.75 101.164C227.854 101.516 226.822 101.692 225.654 101.692ZM222.918 86.932L226.158 83.476H230.19L225.846 86.932H222.918ZM249.103 101.5V98.98L248.863 98.428V93.916C248.863 93.116 248.615 92.492 248.119 92.044C247.639 91.596 246.895 91.372 245.887 91.372C245.199 91.372 244.519 91.484 243.847 91.708C243.191 91.916 242.631 92.204 242.167 92.572L240.823 89.956C241.527 89.46 242.375 89.076 243.367 88.804C244.359 88.532 245.367 88.396 246.391 88.396C248.359 88.396 249.887 88.86 250.975 89.788C252.063 90.716 252.607 92.164 252.607 94.132V101.5H249.103ZM245.167 101.692C244.159 101.692 243.295 101.524 242.575 101.188C241.855 100.836 241.303 100.364 240.919 99.772C240.535 99.18 240.343 98.516 240.343 97.78C240.343 97.012 240.527 96.34 240.895 95.764C241.279 95.188 241.879 94.74 242.695 94.42C243.511 94.084 244.575 93.916 245.887 93.916H249.319V96.1H246.295C245.415 96.1 244.807 96.244 244.471 96.532C244.151 96.82 243.991 97.18 243.991 97.612C243.991 98.092 244.175 98.476 244.543 98.764C244.927 99.036 245.447 99.172 246.103 99.172C246.727 99.172 247.287 99.028 247.783 98.74C248.279 98.436 248.639 97.996 248.863 97.42L249.439 99.148C249.167 99.98 248.671 100.612 247.951 101.044C247.231 101.476 246.303 101.692 245.167 101.692ZM267.137 101.692C266.033 101.692 264.969 101.564 263.945 101.308C262.937 101.036 262.137 100.7 261.545 100.3L262.793 97.612C263.385 97.98 264.081 98.284 264.881 98.524C265.697 98.748 266.497 98.86 267.281 98.86C268.145 98.86 268.753 98.756 269.105 98.548C269.473 98.34 269.657 98.052 269.657 97.684C269.657 97.38 269.513 97.156 269.225 97.012C268.953 96.852 268.585 96.732 268.121 96.652C267.657 96.572 267.145 96.492 266.585 96.412C266.041 96.332 265.489 96.228 264.929 96.1C264.369 95.956 263.857 95.748 263.393 95.476C262.929 95.204 262.553 94.836 262.265 94.372C261.993 93.908 261.857 93.308 261.857 92.572C261.857 91.756 262.089 91.036 262.553 90.412C263.033 89.788 263.721 89.3 264.617 88.948C265.513 88.58 266.585 88.396 267.833 88.396C268.713 88.396 269.609 88.492 270.521 88.684C271.433 88.876 272.193 89.156 272.801 89.524L271.553 92.188C270.929 91.82 270.297 91.572 269.657 91.444C269.033 91.3 268.425 91.228 267.833 91.228C267.001 91.228 266.393 91.34 266.009 91.564C265.625 91.788 265.433 92.076 265.433 92.428C265.433 92.748 265.569 92.988 265.841 93.148C266.129 93.308 266.505 93.436 266.969 93.532C267.433 93.628 267.937 93.716 268.481 93.796C269.041 93.86 269.601 93.964 270.161 94.108C270.721 94.252 271.225 94.46 271.673 94.732C272.137 94.988 272.513 95.348 272.801 95.812C273.089 96.26 273.233 96.852 273.233 97.588C273.233 98.388 272.993 99.1 272.513 99.724C272.033 100.332 271.337 100.812 270.425 101.164C269.529 101.516 268.433 101.692 267.137 101.692ZM280.991 101.692C279.919 101.692 278.959 101.484 278.111 101.068C277.279 100.652 276.631 100.02 276.167 99.172C275.703 98.308 275.471 97.212 275.471 95.884V88.588H279.215V95.332C279.215 96.404 279.439 97.196 279.887 97.708C280.351 98.204 280.999 98.452 281.831 98.452C282.407 98.452 282.919 98.332 283.367 98.092C283.815 97.836 284.167 97.452 284.423 96.94C284.679 96.412 284.807 95.756 284.807 94.972V88.588H288.551V101.5H284.999V97.948L285.647 98.98C285.215 99.876 284.575 100.556 283.727 101.02C282.895 101.468 281.983 101.692 280.991 101.692ZM299.939 101.5V98.98L299.699 98.428V93.916C299.699 93.116 299.451 92.492 298.955 92.044C298.475 91.596 297.731 91.372 296.723 91.372C296.035 91.372 295.355 91.484 294.683 91.708C294.027 91.916 293.467 92.204 293.003 92.572L291.659 89.956C292.363 89.46 293.211 89.076 294.203 88.804C295.195 88.532 296.203 88.396 297.227 88.396C299.195 88.396 300.723 88.86 301.811 89.788C302.899 90.716 303.443 92.164 303.443 94.132V101.5H299.939ZM296.003 101.692C294.995 101.692 294.131 101.524 293.411 101.188C292.691 100.836 292.139 100.364 291.755 99.772C291.371 99.18 291.179 98.516 291.179 97.78C291.179 97.012 291.363 96.34 291.731 95.764C292.115 95.188 292.715 94.74 293.531 94.42C294.347 94.084 295.411 93.916 296.723 93.916H300.155V96.1H297.131C296.251 96.1 295.643 96.244 295.307 96.532C294.987 96.82 294.827 97.18 294.827 97.612C294.827 98.092 295.011 98.476 295.379 98.764C295.763 99.036 296.283 99.172 296.939 99.172C297.563 99.172 298.123 99.028 298.619 98.74C299.115 98.436 299.475 97.996 299.699 97.42L300.275 99.148C300.003 99.98 299.507 100.612 298.787 101.044C298.067 101.476 297.139 101.692 296.003 101.692ZM317.973 101.692C316.869 101.692 315.805 101.564 314.781 101.308C313.773 101.036 312.973 100.7 312.381 100.3L313.629 97.612C314.221 97.98 314.917 98.284 315.717 98.524C316.533 98.748 317.333 98.86 318.117 98.86C318.981 98.86 319.589 98.756 319.941 98.548C320.309 98.34 320.493 98.052 320.493 97.684C320.493 97.38 320.349 97.156 320.061 97.012C319.789 96.852 319.421 96.732 318.957 96.652C318.493 96.572 317.981 96.492 317.421 96.412C316.877 96.332 316.325 96.228 315.765 96.1C315.205 95.956 314.693 95.748 314.229 95.476C313.765 95.204 313.389 94.836 313.101 94.372C312.829 93.908 312.693 93.308 312.693 92.572C312.693 91.756 312.925 91.036 313.389 90.412C313.869 89.788 314.557 89.3 315.453 88.948C316.349 88.58 317.421 88.396 318.669 88.396C319.549 88.396 320.445 88.492 321.357 88.684C322.269 88.876 323.029 89.156 323.637 89.524L322.389 92.188C321.765 91.82 321.133 91.572 320.493 91.444C319.869 91.3 319.261 91.228 318.669 91.228C317.837 91.228 317.229 91.34 316.845 91.564C316.461 91.788 316.269 92.076 316.269 92.428C316.269 92.748 316.405 92.988 316.677 93.148C316.965 93.308 317.341 93.436 317.805 93.532C318.269 93.628 318.773 93.716 319.317 93.796C319.877 93.86 320.437 93.964 320.997 94.108C321.557 94.252 322.061 94.46 322.509 94.732C322.973 94.988 323.349 95.348 323.637 95.812C323.925 96.26 324.069 96.852 324.069 97.588C324.069 98.388 323.829 99.1 323.349 99.724C322.869 100.332 322.173 100.812 321.261 101.164C320.365 101.516 319.269 101.692 317.973 101.692ZM332.523 101.692C331.147 101.692 329.923 101.404 328.851 100.828C327.795 100.252 326.955 99.468 326.331 98.476C325.723 97.468 325.419 96.324 325.419 95.044C325.419 93.748 325.723 92.604 326.331 91.612C326.955 90.604 327.795 89.82 328.851 89.26C329.923 88.684 331.147 88.396 332.523 88.396C333.883 88.396 335.099 88.684 336.171 89.26C337.243 89.82 338.083 90.596 338.691 91.588C339.299 92.58 339.603 93.732 339.603 95.044C339.603 96.324 339.299 97.468 338.691 98.476C338.083 99.468 337.243 100.252 336.171 100.828C335.099 101.404 333.883 101.692 332.523 101.692ZM332.523 98.62C333.147 98.62 333.707 98.476 334.203 98.188C334.699 97.9 335.091 97.492 335.379 96.964C335.667 96.42 335.811 95.78 335.811 95.044C335.811 94.292 335.667 93.652 335.379 93.124C335.091 92.596 334.699 92.188 334.203 91.9C333.707 91.612 333.147 91.468 332.523 91.468C331.899 91.468 331.339 91.612 330.843 91.9C330.347 92.188 329.947 92.596 329.643 93.124C329.355 93.652 329.211 94.292 329.211 95.044C329.211 95.78 329.355 96.42 329.643 96.964C329.947 97.492 330.347 97.9 330.843 98.188C331.339 98.476 331.899 98.62 332.523 98.62ZM342.105 101.5V88.588H345.681V92.236L345.177 91.18C345.561 90.268 346.177 89.58 347.025 89.116C347.873 88.636 348.905 88.396 350.121 88.396V91.852C349.961 91.836 349.817 91.828 349.689 91.828C349.561 91.812 349.425 91.804 349.281 91.804C348.257 91.804 347.425 92.1 346.785 92.692C346.161 93.268 345.849 94.172 345.849 95.404V101.5H342.105ZM358.073 101.692C356.553 101.692 355.369 101.308 354.521 100.54C353.673 99.756 353.249 98.596 353.249 97.06V85.732H356.993V97.012C356.993 97.556 357.137 97.98 357.425 98.284C357.713 98.572 358.105 98.716 358.601 98.716C359.193 98.716 359.697 98.556 360.113 98.236L361.121 100.876C360.737 101.148 360.273 101.356 359.729 101.5C359.201 101.628 358.649 101.692 358.073 101.692ZM351.257 91.756V88.876H360.209V91.756H351.257ZM369.232 101.692C367.76 101.692 366.464 101.404 365.344 100.828C364.24 100.252 363.384 99.468 362.776 98.476C362.168 97.468 361.864 96.324 361.864 95.044C361.864 93.748 362.16 92.604 362.752 91.612C363.36 90.604 364.184 89.82 365.224 89.26C366.264 88.684 367.44 88.396 368.752 88.396C370.016 88.396 371.152 88.668 372.16 89.212C373.184 89.74 373.992 90.508 374.584 91.516C375.176 92.508 375.472 93.7 375.472 95.092C375.472 95.236 375.464 95.404 375.448 95.596C375.432 95.772 375.416 95.94 375.4 96.1H364.912V93.916H373.432L371.992 94.564C371.992 93.892 371.856 93.308 371.584 92.812C371.312 92.316 370.936 91.932 370.456 91.66C369.976 91.372 369.416 91.228 368.776 91.228C368.136 91.228 367.568 91.372 367.072 91.66C366.592 91.932 366.216 92.324 365.944 92.836C365.672 93.332 365.536 93.924 365.536 94.612V95.188C365.536 95.892 365.688 96.516 365.992 97.06C366.312 97.588 366.752 97.996 367.312 98.284C367.888 98.556 368.56 98.692 369.328 98.692C370.016 98.692 370.616 98.588 371.128 98.38C371.656 98.172 372.136 97.86 372.568 97.444L374.56 99.604C373.968 100.276 373.224 100.796 372.328 101.164C371.432 101.516 370.4 101.692 369.232 101.692ZM218.087 130.692C216.871 130.692 215.775 130.42 214.799 129.876C213.823 129.316 213.047 128.54 212.471 127.548C211.911 126.556 211.631 125.388 211.631 124.044C211.631 122.684 211.911 121.508 212.471 120.516C213.047 119.524 213.823 118.756 214.799 118.212C215.775 117.668 216.871 117.396 218.087 117.396C219.175 117.396 220.127 117.636 220.943 118.116C221.759 118.596 222.391 119.324 222.839 120.3C223.287 121.276 223.511 122.524 223.511 124.044C223.511 125.548 223.295 126.796 222.863 127.788C222.431 128.764 221.807 129.492 220.991 129.972C220.191 130.452 219.223 130.692 218.087 130.692ZM218.735 127.62C219.343 127.62 219.895 127.476 220.391 127.188C220.887 126.9 221.279 126.492 221.567 125.964C221.871 125.42 222.023 124.78 222.023 124.044C222.023 123.292 221.871 122.652 221.567 122.124C221.279 121.596 220.887 121.188 220.391 120.9C219.895 120.612 219.343 120.468 218.735 120.468C218.111 120.468 217.551 120.612 217.055 120.9C216.559 121.188 216.159 121.596 215.855 122.124C215.567 122.652 215.423 123.292 215.423 124.044C215.423 124.78 215.567 125.42 215.855 125.964C216.159 126.492 216.559 126.9 217.055 127.188C217.551 127.476 218.111 127.62 218.735 127.62ZM222.119 130.5V127.86L222.191 124.02L221.951 120.204V112.692H225.695V130.5H222.119ZM235.568 130.692C234.096 130.692 232.8 130.404 231.68 129.828C230.576 129.252 229.72 128.468 229.112 127.476C228.504 126.468 228.2 125.324 228.2 124.044C228.2 122.748 228.496 121.604 229.088 120.612C229.696 119.604 230.52 118.82 231.56 118.26C232.6 117.684 233.776 117.396 235.088 117.396C236.352 117.396 237.488 117.668 238.496 118.212C239.52 118.74 240.328 119.508 240.92 120.516C241.512 121.508 241.808 122.7 241.808 124.092C241.808 124.236 241.8 124.404 241.784 124.596C241.768 124.772 241.752 124.94 241.736 125.1H231.248V122.916H239.768L238.328 123.564C238.328 122.892 238.192 122.308 237.92 121.812C237.648 121.316 237.272 120.932 236.792 120.66C236.312 120.372 235.752 120.228 235.112 120.228C234.472 120.228 233.904 120.372 233.408 120.66C232.928 120.932 232.552 121.324 232.28 121.836C232.008 122.332 231.872 122.924 231.872 123.612V124.188C231.872 124.892 232.024 125.516 232.328 126.06C232.648 126.588 233.088 126.996 233.648 127.284C234.224 127.556 234.896 127.692 235.664 127.692C236.352 127.692 236.952 127.588 237.464 127.38C237.992 127.172 238.472 126.86 238.904 126.444L240.896 128.604C240.304 129.276 239.56 129.796 238.664 130.164C237.768 130.516 236.736 130.692 235.568 130.692ZM258.946 117.396C259.97 117.396 260.882 117.604 261.682 118.02C262.498 118.42 263.138 119.044 263.602 119.892C264.066 120.724 264.298 121.796 264.298 123.108V130.5H260.554V123.684C260.554 122.644 260.322 121.876 259.858 121.38C259.41 120.884 258.77 120.636 257.938 120.636C257.346 120.636 256.81 120.764 256.33 121.02C255.866 121.26 255.498 121.636 255.226 122.148C254.97 122.66 254.842 123.316 254.842 124.116V130.5H251.098V112.692H254.842V121.164L254.002 120.084C254.466 119.22 255.13 118.556 255.994 118.092C256.858 117.628 257.842 117.396 258.946 117.396ZM273.929 130.692C272.553 130.692 271.329 130.404 270.257 129.828C269.201 129.252 268.361 128.468 267.737 127.476C267.129 126.468 266.825 125.324 266.825 124.044C266.825 122.748 267.129 121.604 267.737 120.612C268.361 119.604 269.201 118.82 270.257 118.26C271.329 117.684 272.553 117.396 273.929 117.396C275.289 117.396 276.505 117.684 277.577 118.26C278.649 118.82 279.489 119.596 280.097 120.588C280.705 121.58 281.009 122.732 281.009 124.044C281.009 125.324 280.705 126.468 280.097 127.476C279.489 128.468 278.649 129.252 277.577 129.828C276.505 130.404 275.289 130.692 273.929 130.692ZM273.929 127.62C274.553 127.62 275.113 127.476 275.609 127.188C276.105 126.9 276.497 126.492 276.785 125.964C277.073 125.42 277.217 124.78 277.217 124.044C277.217 123.292 277.073 122.652 276.785 122.124C276.497 121.596 276.105 121.188 275.609 120.9C275.113 120.612 274.553 120.468 273.929 120.468C273.305 120.468 272.745 120.612 272.249 120.9C271.753 121.188 271.353 121.596 271.049 122.124C270.761 122.652 270.617 123.292 270.617 124.044C270.617 124.78 270.761 125.42 271.049 125.964C271.353 126.492 271.753 126.9 272.249 127.188C272.745 127.476 273.305 127.62 273.929 127.62ZM282.552 135.348C281.976 135.348 281.424 135.284 280.896 135.156C280.368 135.044 279.92 134.868 279.552 134.628L280.56 131.916C280.992 132.22 281.52 132.372 282.144 132.372C282.608 132.372 282.976 132.212 283.248 131.892C283.536 131.588 283.68 131.124 283.68 130.5V117.588H287.424V130.476C287.424 131.964 287 133.148 286.152 134.028C285.304 134.908 284.104 135.348 282.552 135.348ZM285.552 115.788C284.864 115.788 284.304 115.588 283.872 115.188C283.44 114.788 283.224 114.292 283.224 113.7C283.224 113.108 283.44 112.612 283.872 112.212C284.304 111.812 284.864 111.612 285.552 111.612C286.24 111.612 286.8 111.804 287.232 112.188C287.664 112.556 287.88 113.036 287.88 113.628C287.88 114.252 287.664 114.772 287.232 115.188C286.816 115.588 286.256 115.788 285.552 115.788ZM297.279 130.692C295.807 130.692 294.511 130.404 293.391 129.828C292.287 129.252 291.431 128.468 290.823 127.476C290.215 126.468 289.911 125.324 289.911 124.044C289.911 122.748 290.207 121.604 290.799 120.612C291.407 119.604 292.231 118.82 293.271 118.26C294.311 117.684 295.487 117.396 296.799 117.396C298.063 117.396 299.199 117.668 300.207 118.212C301.231 118.74 302.039 119.508 302.631 120.516C303.223 121.508 303.519 122.7 303.519 124.092C303.519 124.236 303.511 124.404 303.495 124.596C303.479 124.772 303.463 124.94 303.447 125.1H292.959V122.916H301.479L300.039 123.564C300.039 122.892 299.903 122.308 299.631 121.812C299.359 121.316 298.983 120.932 298.503 120.66C298.023 120.372 297.463 120.228 296.823 120.228C296.183 120.228 295.615 120.372 295.119 120.66C294.639 120.932 294.263 121.324 293.991 121.836C293.719 122.332 293.583 122.924 293.583 123.612V124.188C293.583 124.892 293.735 125.516 294.039 126.06C294.359 126.588 294.799 126.996 295.359 127.284C295.935 127.556 296.607 127.692 297.375 127.692C298.063 127.692 298.663 127.588 299.175 127.38C299.703 127.172 300.183 126.86 300.615 126.444L302.607 128.604C302.015 129.276 301.271 129.796 300.375 130.164C299.479 130.516 298.447 130.692 297.279 130.692ZM308.46 124.668C308.46 124.108 308.548 123.612 308.724 123.18C308.916 122.748 309.148 122.364 309.42 122.028C309.708 121.692 310.012 121.38 310.332 121.092C310.652 120.804 310.948 120.532 311.22 120.276C311.508 120.004 311.74 119.724 311.916 119.436C312.108 119.148 312.204 118.828 312.204 118.476C312.204 117.9 311.964 117.436 311.484 117.084C311.02 116.732 310.396 116.556 309.612 116.556C308.86 116.556 308.188 116.716 307.596 117.036C307.004 117.34 306.516 117.772 306.132 118.332L303.228 116.628C303.868 115.652 304.756 114.876 305.892 114.3C307.028 113.708 308.404 113.412 310.02 113.412C311.22 113.412 312.276 113.588 313.188 113.94C314.1 114.276 314.812 114.772 315.324 115.428C315.852 116.084 316.116 116.892 316.116 117.852C316.116 118.476 316.02 119.028 315.828 119.508C315.636 119.988 315.388 120.404 315.084 120.756C314.78 121.108 314.452 121.436 314.1 121.74C313.764 122.044 313.444 122.34 313.14 122.628C312.836 122.916 312.58 123.22 312.372 123.54C312.18 123.86 312.084 124.236 312.084 124.668H308.46ZM310.284 130.692C309.612 130.692 309.06 130.476 308.628 130.044C308.196 129.612 307.98 129.1 307.98 128.508C307.98 127.9 308.196 127.396 308.628 126.996C309.06 126.58 309.612 126.372 310.284 126.372C310.972 126.372 311.524 126.58 311.94 126.996C312.372 127.396 312.588 127.9 312.588 128.508C312.588 129.1 312.372 129.612 311.94 130.044C311.524 130.476 310.972 130.692 310.284 130.692Z" fill="#34355B"/>
</g>
<defs>
<filter id="filter0_d_1_3" x="0" y="0.5" width="528" height="524" filterUnits="userSpaceOnUse" color-interpolation-filters="sRGB">
<feFlood flood-opacity="0" result="BackgroundImageFix"/>
<feColorMatrix in="SourceAlpha" type="matrix" values="0 0 0 0 0 0 0 0 0 0 0 0 0 0 0 0 0 0 127 0" result="hardAlpha"/>
<feOffset dy="20"/>
<feGaussianBlur stdDeviation="25"/>
<feComposite in2="hardAlpha" operator="out"/>
<feColorMatrix type="matrix" values="0 0 0 0 0 0 0 0 0 0 0 0 0 0 0 0 0 0 0.8 0"/>
<feBlend mode="normal" in2="BackgroundImageFix" result="effect1_dropShadow_1_3"/>
<feBlend mode="normal" in="SourceGraphic" in2="effect1_dropShadow_1_3" result="shape"/>
</filter>
</defs>
</svg>
